<svg width="7" height="28" viewBox="0 0 7 28" fill="none" xmlns="http://www.w3.org/2000/svg">
<path id="Vector" d="M3.5 7.04575C5.425 7.04575 7 5.50415 7 3.61997C7 1.73579 5.425 0.194183 3.5 0.194183C1.575 0.194183 0 1.73579 0 3.61997C0 5.50415 1.575 7.04575 3.5 7.04575ZM3.5 10.4715C1.575 10.4715 0 12.0131 0 13.8973C0 15.7815 1.575 17.3231 3.5 17.3231C5.425 17.3231 7 15.7815 7 13.8973C7 12.0131 5.425 10.4715 3.5 10.4715ZM3.5 20.7489C1.575 20.7489 0 22.2905 0 24.1747C0 26.0588 1.575 27.6004 3.5 27.6004C5.425 27.6004 7 26.0588 7 24.1747C7 22.2905 5.425 20.7489 3.5 20.7489Z" fill="black"/>
</svg>
