<svg width="24" height="6" viewBox="0 0 24 6" fill="none" xmlns="http://www.w3.org/2000/svg">
<path id="Vector" d="M5.87277 3C5.87277 1.35 4.5514 0 2.93638 0C1.32137 0 0 1.35 0 3C0 4.65 1.32137 6 2.93638 6C4.5514 6 5.87277 4.65 5.87277 3ZM8.80915 3C8.80915 4.65 10.1305 6 11.7455 6C13.3605 6 14.6819 4.65 14.6819 3C14.6819 1.35 13.3605 0 11.7455 0C10.1305 0 8.80915 1.35 8.80915 3ZM17.6183 3C17.6183 4.65 18.9397 6 20.5547 6C22.1697 6 23.4911 4.65 23.4911 3C23.4911 1.35 22.1697 0 20.5547 0C18.9397 0 17.6183 1.35 17.6183 3Z" fill="#B7B7B7"/>
</svg>
