<svg width="21" height="21" viewBox="0 0 21 21" fill="none" xmlns="http://www.w3.org/2000/svg">
<path id="Vector" d="M18.7557 16.5014C18.2396 16.0071 17.7374 15.4986 17.2495 14.9765C16.8397 14.5601 16.5929 14.2571 16.5929 14.2571L13.5079 12.784C14.743 11.3832 15.4246 9.58 15.425 7.71249C15.425 3.4607 11.9654 0 7.71249 0C3.4596 0 0 3.4607 0 7.71249C0 11.9643 3.4596 15.425 7.71249 15.425C9.65493 15.425 11.4255 14.6978 12.784 13.509L14.2571 16.594C14.2571 16.594 14.5601 16.8408 14.9765 17.2506C15.4029 17.6506 15.9637 18.1916 16.5014 18.7568L17.9976 20.2905L18.6631 21.0022L21 18.6653L20.2882 17.9998C19.8707 17.59 19.3132 17.0457 18.7557 16.5014ZM7.71249 13.2214C4.67487 13.2214 2.20357 10.7501 2.20357 7.71249C2.20357 4.67487 4.67487 2.20357 7.71249 2.20357C10.7501 2.20357 13.2214 4.67487 13.2214 7.71249C13.2214 10.7501 10.7501 13.2214 7.71249 13.2214Z" fill="#B7B7B7"/>
</svg>
